<mxfile host="Electron" agent="Mozilla/5.0 (Windows NT 10.0; Win64; x64) AppleWebKit/537.36 (KHTML, like Gecko) draw.io/28.0.6 Chrome/138.0.7204.100 Electron/37.2.3 Safari/537.36" version="28.0.6">
  <diagram name="Page-1" id="OrDdo6rWWppKTrzOoG22">
    <mxGraphModel dx="1424" dy="841" grid="1" gridSize="10" guides="1" tooltips="1" connect="1" arrows="1" fold="1" page="1" pageScale="1" pageWidth="1100" pageHeight="850" math="0" shadow="0">
      <root>
        <mxCell id="0" />
        <mxCell id="1" parent="0" />
        <mxCell id="1atVcuSFbMdtVZjIhg7L-1" value="&lt;font style=&quot;font-size: 24px;&quot;&gt;Integration Model&lt;/font&gt; --- how tables are related" style="text;html=1;align=center;verticalAlign=middle;resizable=0;points=[];autosize=1;strokeColor=none;fillColor=none;" parent="1" vertex="1">
          <mxGeometry x="10" y="33" width="350" height="40" as="geometry" />
        </mxCell>
        <mxCell id="1atVcuSFbMdtVZjIhg7L-6" value="crm_cust_info" style="swimlane;fontStyle=0;childLayout=stackLayout;horizontal=1;startSize=30;horizontalStack=0;resizeParent=1;resizeParentMax=0;resizeLast=0;collapsible=1;marginBottom=0;whiteSpace=wrap;html=1;rounded=1;fillColor=#dae8fc;strokeColor=#6c8ebf;fontSize=16;" parent="1" vertex="1">
          <mxGeometry x="430" y="535" width="190" height="90" as="geometry" />
        </mxCell>
        <mxCell id="1atVcuSFbMdtVZjIhg7L-7" value="cst_id&amp;nbsp;" style="text;strokeColor=none;fillColor=none;align=left;verticalAlign=middle;spacingLeft=4;spacingRight=4;overflow=hidden;points=[[0,0.5],[1,0.5]];portConstraint=eastwest;rotatable=0;whiteSpace=wrap;html=1;fontSize=16;" parent="1atVcuSFbMdtVZjIhg7L-6" vertex="1">
          <mxGeometry y="30" width="190" height="30" as="geometry" />
        </mxCell>
        <mxCell id="1atVcuSFbMdtVZjIhg7L-26" value="cst_key" style="text;strokeColor=none;fillColor=none;align=left;verticalAlign=middle;spacingLeft=4;spacingRight=4;overflow=hidden;points=[[0,0.5],[1,0.5]];portConstraint=eastwest;rotatable=0;whiteSpace=wrap;html=1;fontSize=16;" parent="1atVcuSFbMdtVZjIhg7L-6" vertex="1">
          <mxGeometry y="60" width="190" height="30" as="geometry" />
        </mxCell>
        <mxCell id="1atVcuSFbMdtVZjIhg7L-11" value="crm_prd&lt;span style=&quot;background-color: transparent; color: light-dark(rgb(0, 0, 0), rgb(255, 255, 255));&quot;&gt;_info&lt;/span&gt;" style="swimlane;fontStyle=0;childLayout=stackLayout;horizontal=1;startSize=30;horizontalStack=0;resizeParent=1;resizeParentMax=0;resizeLast=0;collapsible=1;marginBottom=0;whiteSpace=wrap;html=1;rounded=1;fillColor=#dae8fc;strokeColor=#6c8ebf;fontSize=16;" parent="1" vertex="1">
          <mxGeometry x="430" y="385" width="190" height="60" as="geometry" />
        </mxCell>
        <mxCell id="1atVcuSFbMdtVZjIhg7L-12" value="prd_key" style="text;strokeColor=none;fillColor=none;align=left;verticalAlign=middle;spacingLeft=4;spacingRight=4;overflow=hidden;points=[[0,0.5],[1,0.5]];portConstraint=eastwest;rotatable=0;whiteSpace=wrap;html=1;fontSize=16;" parent="1atVcuSFbMdtVZjIhg7L-11" vertex="1">
          <mxGeometry y="30" width="190" height="30" as="geometry" />
        </mxCell>
        <mxCell id="1atVcuSFbMdtVZjIhg7L-13" value="Customer information" style="text;html=1;align=center;verticalAlign=middle;whiteSpace=wrap;rounded=0;fontSize=12;" parent="1" vertex="1">
          <mxGeometry x="438.75" y="515" width="172.5" height="20" as="geometry" />
        </mxCell>
        <mxCell id="1atVcuSFbMdtVZjIhg7L-14" value="Current &amp;amp; History Product Information" style="text;html=1;align=center;verticalAlign=middle;whiteSpace=wrap;rounded=0;fontSize=12;" parent="1" vertex="1">
          <mxGeometry x="410" y="365" width="230" height="20" as="geometry" />
        </mxCell>
        <mxCell id="1atVcuSFbMdtVZjIhg7L-15" value="sales_details" style="swimlane;fontStyle=0;childLayout=stackLayout;horizontal=1;startSize=30;horizontalStack=0;resizeParent=1;resizeParentMax=0;resizeLast=0;collapsible=1;marginBottom=0;whiteSpace=wrap;html=1;rounded=1;fillColor=#dae8fc;strokeColor=#6c8ebf;fontSize=16;" parent="1" vertex="1">
          <mxGeometry x="80" y="445" width="190" height="90" as="geometry" />
        </mxCell>
        <mxCell id="1atVcuSFbMdtVZjIhg7L-16" value="prd_key&amp;nbsp;" style="text;strokeColor=none;fillColor=none;align=left;verticalAlign=middle;spacingLeft=4;spacingRight=4;overflow=hidden;points=[[0,0.5],[1,0.5]];portConstraint=eastwest;rotatable=0;whiteSpace=wrap;html=1;fontSize=16;" parent="1atVcuSFbMdtVZjIhg7L-15" vertex="1">
          <mxGeometry y="30" width="190" height="30" as="geometry" />
        </mxCell>
        <mxCell id="1atVcuSFbMdtVZjIhg7L-19" value="cst_id" style="text;strokeColor=none;fillColor=none;align=left;verticalAlign=middle;spacingLeft=4;spacingRight=4;overflow=hidden;points=[[0,0.5],[1,0.5]];portConstraint=eastwest;rotatable=0;whiteSpace=wrap;html=1;fontSize=16;" parent="1atVcuSFbMdtVZjIhg7L-15" vertex="1">
          <mxGeometry y="60" width="190" height="30" as="geometry" />
        </mxCell>
        <mxCell id="1atVcuSFbMdtVZjIhg7L-17" value="transactional records about sales &amp;amp; orders" style="text;html=1;align=center;verticalAlign=middle;whiteSpace=wrap;rounded=0;fontSize=12;" parent="1" vertex="1">
          <mxGeometry x="60" y="425" width="230" height="20" as="geometry" />
        </mxCell>
        <mxCell id="1atVcuSFbMdtVZjIhg7L-20" style="edgeStyle=orthogonalEdgeStyle;rounded=0;orthogonalLoop=1;jettySize=auto;html=1;" parent="1" source="1atVcuSFbMdtVZjIhg7L-19" target="1atVcuSFbMdtVZjIhg7L-7" edge="1">
          <mxGeometry relative="1" as="geometry" />
        </mxCell>
        <mxCell id="1atVcuSFbMdtVZjIhg7L-22" style="edgeStyle=orthogonalEdgeStyle;rounded=0;orthogonalLoop=1;jettySize=auto;html=1;entryX=0;entryY=0.5;entryDx=0;entryDy=0;" parent="1" source="1atVcuSFbMdtVZjIhg7L-16" target="1atVcuSFbMdtVZjIhg7L-12" edge="1">
          <mxGeometry relative="1" as="geometry" />
        </mxCell>
        <mxCell id="1atVcuSFbMdtVZjIhg7L-23" value="erp_cust_az12" style="swimlane;fontStyle=0;childLayout=stackLayout;horizontal=1;startSize=30;horizontalStack=0;resizeParent=1;resizeParentMax=0;resizeLast=0;collapsible=1;marginBottom=0;whiteSpace=wrap;html=1;rounded=1;fillColor=#fff2cc;strokeColor=#d6b656;fontSize=16;" parent="1" vertex="1">
          <mxGeometry x="899.36" y="490" width="190" height="60" as="geometry" />
        </mxCell>
        <mxCell id="1atVcuSFbMdtVZjIhg7L-24" value="cid" style="text;strokeColor=none;fillColor=none;align=left;verticalAlign=middle;spacingLeft=4;spacingRight=4;overflow=hidden;points=[[0,0.5],[1,0.5]];portConstraint=eastwest;rotatable=0;whiteSpace=wrap;html=1;fontSize=16;" parent="1atVcuSFbMdtVZjIhg7L-23" vertex="1">
          <mxGeometry y="30" width="190" height="30" as="geometry" />
        </mxCell>
        <mxCell id="1atVcuSFbMdtVZjIhg7L-25" value="Extra Customer information (Bdate)" style="text;html=1;align=center;verticalAlign=middle;whiteSpace=wrap;rounded=0;fontSize=12;" parent="1" vertex="1">
          <mxGeometry x="888.74" y="470" width="211.25" height="20" as="geometry" />
        </mxCell>
        <mxCell id="1atVcuSFbMdtVZjIhg7L-27" style="edgeStyle=orthogonalEdgeStyle;rounded=0;orthogonalLoop=1;jettySize=auto;html=1;entryX=1;entryY=0.5;entryDx=0;entryDy=0;" parent="1" source="1atVcuSFbMdtVZjIhg7L-24" target="1atVcuSFbMdtVZjIhg7L-26" edge="1">
          <mxGeometry relative="1" as="geometry" />
        </mxCell>
        <mxCell id="1atVcuSFbMdtVZjIhg7L-28" value="erp_loc_a101" style="swimlane;fontStyle=0;childLayout=stackLayout;horizontal=1;startSize=30;horizontalStack=0;resizeParent=1;resizeParentMax=0;resizeLast=0;collapsible=1;marginBottom=0;whiteSpace=wrap;html=1;rounded=1;fillColor=#fff2cc;strokeColor=#d6b656;fontSize=16;" parent="1" vertex="1">
          <mxGeometry x="899.37" y="640" width="190" height="60" as="geometry" />
        </mxCell>
        <mxCell id="1atVcuSFbMdtVZjIhg7L-29" value="cid" style="text;strokeColor=none;fillColor=none;align=left;verticalAlign=middle;spacingLeft=4;spacingRight=4;overflow=hidden;points=[[0,0.5],[1,0.5]];portConstraint=eastwest;rotatable=0;whiteSpace=wrap;html=1;fontSize=16;" parent="1atVcuSFbMdtVZjIhg7L-28" vertex="1">
          <mxGeometry y="30" width="190" height="30" as="geometry" />
        </mxCell>
        <mxCell id="1atVcuSFbMdtVZjIhg7L-30" value="Extra Customer information (Country)" style="text;html=1;align=center;verticalAlign=middle;whiteSpace=wrap;rounded=0;fontSize=12;" parent="1" vertex="1">
          <mxGeometry x="888.75" y="620" width="211.25" height="20" as="geometry" />
        </mxCell>
        <mxCell id="1atVcuSFbMdtVZjIhg7L-31" style="edgeStyle=orthogonalEdgeStyle;rounded=0;orthogonalLoop=1;jettySize=auto;html=1;entryX=1;entryY=0.5;entryDx=0;entryDy=0;" parent="1" source="1atVcuSFbMdtVZjIhg7L-29" target="1atVcuSFbMdtVZjIhg7L-26" edge="1">
          <mxGeometry relative="1" as="geometry" />
        </mxCell>
        <mxCell id="1atVcuSFbMdtVZjIhg7L-32" value="erp_px_cat_g2v2" style="swimlane;fontStyle=0;childLayout=stackLayout;horizontal=1;startSize=30;horizontalStack=0;resizeParent=1;resizeParentMax=0;resizeLast=0;collapsible=1;marginBottom=0;whiteSpace=wrap;html=1;rounded=1;fillColor=#fff2cc;strokeColor=#d6b656;fontSize=16;" parent="1" vertex="1">
          <mxGeometry x="899.3699999999999" y="350" width="190" height="60" as="geometry" />
        </mxCell>
        <mxCell id="1atVcuSFbMdtVZjIhg7L-33" value="id" style="text;strokeColor=none;fillColor=none;align=left;verticalAlign=middle;spacingLeft=4;spacingRight=4;overflow=hidden;points=[[0,0.5],[1,0.5]];portConstraint=eastwest;rotatable=0;whiteSpace=wrap;html=1;fontSize=16;" parent="1atVcuSFbMdtVZjIhg7L-32" vertex="1">
          <mxGeometry y="30" width="190" height="30" as="geometry" />
        </mxCell>
        <mxCell id="1atVcuSFbMdtVZjIhg7L-34" value="Product Categories &amp;amp; Subcategories" style="text;html=1;align=center;verticalAlign=middle;whiteSpace=wrap;rounded=0;fontSize=12;" parent="1" vertex="1">
          <mxGeometry x="888.75" y="330" width="211.25" height="20" as="geometry" />
        </mxCell>
        <mxCell id="1atVcuSFbMdtVZjIhg7L-35" style="edgeStyle=orthogonalEdgeStyle;rounded=0;orthogonalLoop=1;jettySize=auto;html=1;entryX=1;entryY=0.5;entryDx=0;entryDy=0;" parent="1" source="1atVcuSFbMdtVZjIhg7L-33" target="1atVcuSFbMdtVZjIhg7L-12" edge="1">
          <mxGeometry relative="1" as="geometry" />
        </mxCell>
        <mxCell id="1atVcuSFbMdtVZjIhg7L-36" value="" style="rounded=1;whiteSpace=wrap;html=1;fillColor=none;dashed=1;" parent="1" vertex="1">
          <mxGeometry x="50" y="285" width="600" height="465" as="geometry" />
        </mxCell>
        <mxCell id="1atVcuSFbMdtVZjIhg7L-37" value="&lt;font style=&quot;font-size: 34px;&quot;&gt;CRM&lt;/font&gt;" style="rounded=1;whiteSpace=wrap;html=1;fillColor=#dae8fc;strokeColor=#6c8ebf;fontStyle=1" parent="1" vertex="1">
          <mxGeometry x="260" y="270" width="160" height="30" as="geometry" />
        </mxCell>
        <mxCell id="1atVcuSFbMdtVZjIhg7L-38" value="" style="rounded=1;whiteSpace=wrap;html=1;fillColor=none;dashed=1;" parent="1" vertex="1">
          <mxGeometry x="694.38" y="282.5" width="600" height="467.5" as="geometry" />
        </mxCell>
        <mxCell id="1atVcuSFbMdtVZjIhg7L-39" value="&lt;font style=&quot;font-size: 34px;&quot;&gt;ERP&lt;/font&gt;" style="rounded=1;whiteSpace=wrap;html=1;fillColor=#fff2cc;strokeColor=#d6b656;fontStyle=1" parent="1" vertex="1">
          <mxGeometry x="914.38" y="270" width="160" height="30" as="geometry" />
        </mxCell>
        <mxCell id="BqJrcxLHibc_7uy_r7am-1" value="Products" style="text;html=1;strokeColor=#b85450;fillColor=#f8cecc;align=center;verticalAlign=middle;whiteSpace=wrap;overflow=hidden;fontSize=20;" vertex="1" parent="1">
          <mxGeometry x="430" y="445" width="190" height="25" as="geometry" />
        </mxCell>
        <mxCell id="BqJrcxLHibc_7uy_r7am-3" value="Products" style="text;html=1;strokeColor=#b85450;fillColor=#f8cecc;align=center;verticalAlign=middle;whiteSpace=wrap;overflow=hidden;fontSize=20;" vertex="1" parent="1">
          <mxGeometry x="899.36" y="410" width="190" height="25" as="geometry" />
        </mxCell>
        <mxCell id="BqJrcxLHibc_7uy_r7am-4" value="Customer" style="text;html=1;strokeColor=#82b366;fillColor=#d5e8d4;align=center;verticalAlign=middle;whiteSpace=wrap;overflow=hidden;fontSize=20;" vertex="1" parent="1">
          <mxGeometry x="430" y="625" width="190" height="25" as="geometry" />
        </mxCell>
        <mxCell id="BqJrcxLHibc_7uy_r7am-5" value="Customer" style="text;html=1;strokeColor=#82b366;fillColor=#d5e8d4;align=center;verticalAlign=middle;whiteSpace=wrap;overflow=hidden;fontSize=20;" vertex="1" parent="1">
          <mxGeometry x="899.36" y="700" width="190" height="25" as="geometry" />
        </mxCell>
        <mxCell id="BqJrcxLHibc_7uy_r7am-6" value="Customer" style="text;html=1;strokeColor=#82b366;fillColor=#d5e8d4;align=center;verticalAlign=middle;whiteSpace=wrap;overflow=hidden;fontSize=20;" vertex="1" parent="1">
          <mxGeometry x="899.38" y="550" width="190" height="25" as="geometry" />
        </mxCell>
        <mxCell id="BqJrcxLHibc_7uy_r7am-7" value="Sales" style="text;html=1;strokeColor=#9673a6;fillColor=#e1d5e7;align=center;verticalAlign=middle;whiteSpace=wrap;overflow=hidden;fontSize=20;" vertex="1" parent="1">
          <mxGeometry x="80" y="535" width="190" height="25" as="geometry" />
        </mxCell>
        <mxCell id="BqJrcxLHibc_7uy_r7am-8" value="&lt;span style=&quot;font-size: 24px;&quot;&gt;Exploring business Objects (products, sales, customers) gold layer&lt;/span&gt;" style="text;html=1;align=center;verticalAlign=middle;resizable=0;points=[];autosize=1;strokeColor=none;fillColor=none;" vertex="1" parent="1">
          <mxGeometry x="10" y="73" width="730" height="40" as="geometry" />
        </mxCell>
      </root>
    </mxGraphModel>
  </diagram>
</mxfile>
